<?xml version="1.0" encoding="UTF-8"?>
<!DOCTYPE svg PUBLIC "-//W3C//DTD SVG 1.1//EN" "http://www.w3.org/Graphics/SVG/1.1/DTD/svg11.dtd">
<!-- Creator: CorelDRAW 2019 (64-Bit) -->
<svg xmlns="http://www.w3.org/2000/svg" xml:space="preserve" width="20px" height="18px" version="1.1" style="shape-rendering:geometricPrecision; text-rendering:geometricPrecision; image-rendering:optimizeQuality; fill-rule:evenodd; clip-rule:evenodd"
viewBox="0 0 0.8 0.72"
 xmlns:xlink="http://www.w3.org/1999/xlink"
 xmlns:xodm="http://www.corel.com/coreldraw/odm/2003">
 <defs>
  <style type="text/css">
   <![CDATA[
    .fil0 {fill:#3D546F}
   ]]>
  </style>
 </defs>
 <g id="Слой_x0020_1">
  <metadata id="CorelCorpID_0Corel-Layer"/>
  <path id="catalog-icon-user-hover.svg" class="fil0" d="M0.71 0.56c-0.08,-0.03 -0.17,-0.06 -0.2,-0.09 -0.03,-0.02 -0.03,-0.07 -0.03,-0.1 0.05,-0.03 0.08,-0.1 0.08,-0.17 0,-0.11 -0.07,-0.2 -0.16,-0.2 -0.09,0 -0.16,0.09 -0.16,0.2 0,0.07 0.03,0.14 0.07,0.17 0.01,0.03 0.01,0.08 -0.02,0.1 -0.04,0.03 -0.12,0.06 -0.21,0.09 -0.08,0.03 -0.08,0.16 -0.08,0.16l0.8 0c0,0 0,-0.13 -0.09,-0.16l0 0z"/>
 </g>
</svg>
